<svg width="395" height="31" viewBox="0 0 395 31" fill="none" xmlns="http://www.w3.org/2000/svg">
<path d="M0.528409 30V0.90909H12.0057C14.2121 0.90909 16.0919 1.33049 17.6449 2.1733C19.1979 3.00663 20.3816 4.16667 21.196 5.65341C22.0199 7.13068 22.4318 8.83523 22.4318 10.767C22.4318 12.6989 22.0152 14.4034 21.1818 15.8807C20.3485 17.358 19.1411 18.5085 17.5597 19.3324C15.9877 20.1562 14.0843 20.5682 11.8494 20.5682H4.53409V15.6392H10.8551C12.0388 15.6392 13.0142 15.4356 13.7812 15.0284C14.5578 14.6117 15.1354 14.0388 15.5142 13.3097C15.9025 12.571 16.0966 11.7235 16.0966 10.767C16.0966 9.80114 15.9025 8.95833 15.5142 8.23864C15.1354 7.50947 14.5578 6.94602 13.7812 6.5483C13.0047 6.1411 12.0199 5.9375 10.8267 5.9375H6.67898V30H0.528409ZM44.3956 0.90909H50.5462V19.8011C50.5462 21.9223 50.0395 23.7784 49.0263 25.3693C48.0225 26.9602 46.6162 28.2008 44.8075 29.0909C42.9988 29.9716 40.8918 30.4119 38.4865 30.4119C36.0717 30.4119 33.96 29.9716 32.1513 29.0909C30.3426 28.2008 28.9363 26.9602 27.9325 25.3693C26.9287 23.7784 26.4268 21.9223 26.4268 19.8011V0.90909H32.5774V19.2756C32.5774 20.3835 32.8189 21.3684 33.3018 22.2301C33.7943 23.0919 34.4856 23.7689 35.3757 24.2614C36.2659 24.7538 37.3028 25 38.4865 25C39.6797 25 40.7166 24.7538 41.5973 24.2614C42.4875 23.7689 43.174 23.0919 43.657 22.2301C44.1494 21.3684 44.3956 20.3835 44.3956 19.2756V0.90909ZM71.3878 9.27557C71.2741 8.12973 70.7865 7.23958 69.9247 6.60511C69.063 5.97064 67.8935 5.65341 66.4162 5.65341C65.4124 5.65341 64.5649 5.79545 63.8736 6.07955C63.1823 6.35417 62.652 6.73769 62.2827 7.23011C61.9228 7.72254 61.7429 8.28125 61.7429 8.90625C61.724 9.42708 61.8329 9.88163 62.0696 10.2699C62.3158 10.6581 62.652 10.9943 63.0781 11.2784C63.5043 11.553 63.9967 11.7945 64.5554 12.0028C65.1141 12.2017 65.7107 12.3722 66.3452 12.5142L68.9588 13.1392C70.2277 13.4233 71.3925 13.8021 72.4531 14.2756C73.5137 14.7491 74.4323 15.3314 75.2088 16.0227C75.9853 16.714 76.5866 17.5284 77.0128 18.4659C77.4484 19.4034 77.6709 20.4782 77.6804 21.6903C77.6709 23.4706 77.2164 25.0142 76.3168 26.321C75.4266 27.6184 74.1387 28.6269 72.4531 29.3466C70.777 30.0568 68.7552 30.4119 66.3878 30.4119C64.0393 30.4119 61.9938 30.0521 60.2514 29.3324C58.5185 28.6127 57.1643 27.5473 56.1889 26.1364C55.223 24.7159 54.7164 22.9593 54.669 20.8665H60.6207C60.687 21.8419 60.9664 22.6562 61.4588 23.3097C61.9607 23.9536 62.6283 24.4413 63.4616 24.7727C64.3045 25.0947 65.2562 25.2557 66.3168 25.2557C67.3584 25.2557 68.2628 25.1042 69.0298 24.8011C69.8063 24.4981 70.4077 24.0767 70.8338 23.5369C71.2599 22.9972 71.473 22.3769 71.473 21.6761C71.473 21.0227 71.2789 20.4735 70.8906 20.0284C70.5118 19.5833 69.9531 19.2045 69.2145 18.892C68.4853 18.5795 67.5904 18.2955 66.5298 18.0398L63.3622 17.2443C60.9096 16.6477 58.973 15.715 57.5526 14.446C56.1321 13.1771 55.4266 11.4678 55.4361 9.31818C55.4266 7.55682 55.8954 6.01799 56.8423 4.7017C57.7988 3.38542 59.1103 2.35795 60.777 1.61932C62.4437 0.880681 64.3376 0.511363 66.4588 0.511363C68.6179 0.511363 70.5024 0.880681 72.1122 1.61932C73.7315 2.35795 74.991 3.38542 75.8906 4.7017C76.7902 6.01799 77.2543 7.54261 77.2827 9.27557H71.3878ZM81.8175 30V0.90909H87.968V12.9119H100.454V0.90909H106.59V30H100.454V17.983H87.968V30H81.8175ZM111.661 30V0.90909H123.138C125.345 0.90909 127.225 1.33049 128.778 2.1733C130.331 3.00663 131.514 4.16667 132.329 5.65341C133.153 7.13068 133.565 8.83523 133.565 10.767C133.565 12.6989 133.148 14.4034 132.315 15.8807C131.481 17.358 130.274 18.5085 128.692 19.3324C127.121 20.1562 125.217 20.5682 122.982 20.5682H115.667V15.6392H121.988C123.172 15.6392 124.147 15.4356 124.914 15.0284C125.691 14.6117 126.268 14.0388 126.647 13.3097C127.035 12.571 127.229 11.7235 127.229 10.767C127.229 9.80114 127.035 8.95833 126.647 8.23864C126.268 7.50947 125.691 6.94602 124.914 6.5483C124.138 6.1411 123.153 5.9375 121.96 5.9375H117.812V30H111.661ZM139.214 30H132.624L142.666 0.90909H150.592L160.621 30H154.03L146.743 7.55682H146.516L139.214 30ZM138.803 18.5653H154.371V23.3665H138.803V18.5653ZM164.122 30V0.90909H170.273V13.7358H170.656L181.125 0.90909H188.497L177.702 13.9347L188.625 30H181.267L173.298 18.0398L170.273 21.733V30H164.122ZM196.714 30H190.124L200.166 0.90909H208.092L218.121 30H211.53L204.243 7.55682H204.016L196.714 30ZM196.303 18.5653H211.871V23.3665H196.303V18.5653ZM236.136 0.90909L243.167 23.0114H243.437L250.482 0.90909H257.3L247.272 30H239.346L229.303 0.90909H236.136ZM266.952 0.90909V30H260.802V0.90909H266.952ZM272.013 0.90909H279.598L287.609 20.4545H287.95L295.962 0.90909H303.547V30H297.581V11.0653H297.339L289.811 29.858H285.749L278.22 10.9943H277.979V30H272.013V0.90909ZM313.629 30H307.038L317.08 0.90909H325.006L335.035 30H328.444L321.157 7.55682H320.93L313.629 30ZM313.217 18.5653H328.785V23.3665H313.217V18.5653ZM362.869 0.90909V30H357.556L344.9 11.6903H344.687V30H338.536V0.90909H343.934L356.491 19.2045H356.746V0.90909H362.869ZM372.964 30H366.374L376.416 0.90909H384.342L394.371 30H387.78L380.493 7.55682H380.266L372.964 30ZM372.553 18.5653H388.121V23.3665H372.553V18.5653Z" fill="white"/>
</svg>
