<svg width="247" height="20" viewBox="0 0 247 20" fill="none" xmlns="http://www.w3.org/2000/svg">
<path d="M0.580256 19V0.818181H7.75355C9.13258 0.818181 10.3074 1.08156 11.2781 1.60831C12.2487 2.12914 12.9885 2.85417 13.4975 3.78338C14.0124 4.70668 14.2699 5.77202 14.2699 6.9794C14.2699 8.18679 14.0095 9.25213 13.4886 10.1754C12.9678 11.0987 12.2132 11.8178 11.2248 12.3327C10.2423 12.8477 9.05268 13.1051 7.6559 13.1051H3.08381V10.0245H7.03445C7.77427 10.0245 8.38388 9.89725 8.86328 9.64276C9.3486 9.38234 9.70964 9.02427 9.94638 8.56854C10.189 8.10689 10.3104 7.57718 10.3104 6.9794C10.3104 6.37571 10.189 5.84896 9.94638 5.39915C9.70964 4.94342 9.3486 4.59126 8.86328 4.34268C8.37796 4.08819 7.76243 3.96094 7.01669 3.96094H4.42436V19H0.580256ZM27.9972 0.818181H31.8414V12.6257C31.8414 13.9515 31.5247 15.1115 30.8914 16.1058C30.2641 17.1001 29.3852 17.8755 28.2547 18.4318C27.1243 18.9822 25.8074 19.2575 24.3041 19.2575C22.7948 19.2575 21.475 18.9822 20.3445 18.4318C19.2141 17.8755 18.3352 17.1001 17.7078 16.1058C17.0805 15.1115 16.7668 13.9515 16.7668 12.6257V0.818181H20.6109V12.2972C20.6109 12.9897 20.7618 13.6052 21.0637 14.1438C21.3714 14.6824 21.8035 15.1056 22.3598 15.4134C22.9162 15.7211 23.5642 15.875 24.3041 15.875C25.0498 15.875 25.6979 15.7211 26.2483 15.4134C26.8047 15.1056 27.2338 14.6824 27.5356 14.1438C27.8434 13.6052 27.9972 12.9897 27.9972 12.2972V0.818181ZM44.8674 6.04723C44.7963 5.33108 44.4915 4.77474 43.9529 4.3782C43.4144 3.98165 42.6834 3.78338 41.7601 3.78338C41.1328 3.78338 40.603 3.87216 40.171 4.04972C39.7389 4.22135 39.4075 4.46106 39.1767 4.76882C38.9518 5.07659 38.8393 5.42578 38.8393 5.81641C38.8275 6.14193 38.8955 6.42602 39.0435 6.66868C39.1974 6.91134 39.4075 7.12145 39.6738 7.29901C39.9402 7.47064 40.2479 7.62157 40.5971 7.75178C40.9463 7.87607 41.3192 7.9826 41.7157 8.07138L43.3493 8.462C44.1423 8.63956 44.8703 8.8763 45.5332 9.17223C46.1961 9.46816 46.7702 9.83215 47.2555 10.2642C47.7408 10.6963 48.1167 11.2053 48.383 11.7912C48.6552 12.3771 48.7943 13.0489 48.8002 13.8065C48.7943 14.9192 48.5102 15.8839 47.948 16.7006C47.3916 17.5115 46.5867 18.1418 45.5332 18.5916C44.4856 19.0355 43.222 19.2575 41.7424 19.2575C40.2746 19.2575 38.9962 19.0326 37.9071 18.5827C36.824 18.1329 35.9777 17.4671 35.3681 16.5852C34.7644 15.6974 34.4477 14.5996 34.4181 13.2915H38.138C38.1794 13.9012 38.354 14.4102 38.6618 14.8185C38.9754 15.221 39.3927 15.5258 39.9135 15.733C40.4403 15.9342 41.0351 16.0348 41.698 16.0348C42.349 16.0348 42.9142 15.9401 43.3936 15.7507C43.879 15.5613 44.2548 15.2979 44.5211 14.9606C44.7875 14.6232 44.9206 14.2356 44.9206 13.7976C44.9206 13.3892 44.7993 13.0459 44.5566 12.7678C44.3199 12.4896 43.9707 12.2528 43.5091 12.0575C43.0533 11.8622 42.494 11.6847 41.8311 11.5249L39.8514 11.0277C38.3185 10.6548 37.1081 10.0719 36.2203 9.27876C35.3326 8.48568 34.8916 7.41738 34.8975 6.07386C34.8916 4.97301 35.1846 4.01124 35.7765 3.18857C36.3742 2.36589 37.194 1.72372 38.2356 1.26207C39.2773 0.800426 40.461 0.569602 41.7868 0.569602C43.1362 0.569602 44.314 0.800426 45.3201 1.26207C46.3322 1.72372 47.1194 2.36589 47.6816 3.18857C48.2439 4.01124 48.5339 4.96413 48.5517 6.04723H44.8674ZM51.3859 19V0.818181H55.23V8.31996H63.0336V0.818181H66.8689V19H63.0336V11.4893H55.23V19H51.3859ZM70.0383 19V0.818181H77.2116C78.5906 0.818181 79.7654 1.08156 80.7361 1.60831C81.7067 2.12914 82.4465 2.85417 82.9555 3.78338C83.4704 4.70668 83.7279 5.77202 83.7279 6.9794C83.7279 8.18679 83.4675 9.25213 82.9466 10.1754C82.4258 11.0987 81.6712 11.8178 80.6828 12.3327C79.7003 12.8477 78.5107 13.1051 77.1139 13.1051H72.5418V10.0245H76.4925C77.2323 10.0245 77.8419 9.89725 78.3213 9.64276C78.8066 9.38234 79.1676 9.02427 79.4044 8.56854C79.647 8.10689 79.7684 7.57718 79.7684 6.9794C79.7684 6.37571 79.647 5.84896 79.4044 5.39915C79.1676 4.94342 78.8066 4.59126 78.3213 4.34268C77.836 4.08819 77.2204 3.96094 76.4747 3.96094H73.8824V19H70.0383ZM87.2591 19H83.1397L89.4164 0.818181H94.3702L100.638 19H96.5186L91.9643 4.97301H91.8223L87.2591 19ZM87.0016 11.8533H96.7317V14.854H87.0016V11.8533ZM102.826 19V0.818181H106.67V8.83487H106.91L113.453 0.818181H118.061L111.314 8.95916L118.141 19H113.542L108.561 11.5249L106.67 13.8331V19H102.826ZM123.197 19H119.077L125.354 0.818181H130.308L136.575 19H132.456L127.902 4.97301H127.76L123.197 19ZM122.939 11.8533H132.669V14.854H122.939V11.8533ZM147.835 0.818181L152.229 14.6321H152.398L156.801 0.818181H161.063L154.795 19H149.841L143.565 0.818181H147.835ZM167.095 0.818181V19H163.251V0.818181H167.095ZM170.258 0.818181H174.999L180.006 13.0341H180.219L185.226 0.818181H189.967V19H186.238V7.16584H186.087L181.382 18.9112H178.843L174.138 7.12145H173.987V19H170.258V0.818181ZM196.268 19H192.149L198.425 0.818181H203.379L209.647 19H205.527L200.973 4.97301H200.831L196.268 19ZM196.01 11.8533H205.741V14.854H196.01V11.8533ZM227.043 0.818181V19H223.723L215.812 7.55646H215.679V19H211.835V0.818181H215.209L223.057 12.2528H223.217V0.818181H227.043ZM233.353 19H229.233L235.51 0.818181H240.464L246.732 19H242.612L238.058 4.97301H237.916L233.353 19ZM233.095 11.8533H242.825V14.854H233.095V11.8533Z" fill="black"/>
</svg>
